<svg width="83" height="39" viewBox="0 0 83 39" fill="none" xmlns="http://www.w3.org/2000/svg">
<path d="M13.356 17.728L12.488 17.7L11.676 14.34C10.5933 14.1533 9.78133 14.06 9.24 14.06C8.176 14.06 6.98133 14.2747 5.656 14.704C5.264 15.432 4.956 16.3653 4.732 17.504C4.508 18.6427 4.396 19.716 4.396 20.724C4.396 25.876 5.88 28.452 8.848 28.452C10.1173 28.452 11.1253 28.2653 11.872 27.892L12.46 24.476C13.636 24.476 14.532 24.5413 15.148 24.672C15.4467 26.7067 15.596 28.3587 15.596 29.628C15.148 29.964 14.2427 30.3373 12.88 30.748C11.536 31.1587 10.2107 31.364 8.904 31.364C3.34133 31.364 0.56 27.9293 0.56 21.06C0.56 17.7933 1.232 15.3107 2.576 13.612C3.93867 11.9133 6.104 11.064 9.072 11.064C10.5467 11.064 11.8533 11.2787 12.992 11.708C14 12.0813 14.8587 12.492 15.568 12.94C15.568 14.2093 15.428 15.74 15.148 17.532C14.6253 17.6627 14.028 17.728 13.356 17.728Z" fill="#F7931A"/>
<path d="M33.5123 14.664C33.867 14.664 34.091 14.6733 34.1843 14.692C34.1843 15.6067 34.0256 16.456 33.7083 17.24C33.6336 21.272 33.587 24.296 33.5683 26.312L35.7523 26.564C35.7523 27.3293 35.5376 28.1413 35.1083 29H28.1363L27.8843 27.46C29.0416 27.0307 29.8816 26.7507 30.4043 26.62L30.0963 17.548C28.995 17.436 28.183 17.296 27.6603 17.128C27.6603 16.6613 27.7256 15.9893 27.8563 15.112C28.9576 14.8133 30.843 14.664 33.5123 14.664ZM33.5123 9.372C33.6803 10.212 33.7643 10.856 33.7643 11.304C33.7643 11.7333 33.727 12.2187 33.6523 12.76C32.9056 12.928 32.271 13.012 31.7483 13.012C31.2443 13.012 30.6283 12.984 29.9003 12.928C29.7323 12.088 29.6483 11.4533 29.6483 11.024C29.6483 10.576 29.6856 10.0813 29.7603 9.54C30.507 9.372 31.1323 9.288 31.6363 9.288C32.159 9.288 32.7843 9.316 33.5123 9.372ZM45.6256 14.44C47.4923 14.44 48.8456 14.8973 49.6856 15.812C50.5256 16.7267 50.9456 18.0053 50.9456 19.648C50.9456 21.2907 50.8523 23.512 50.6656 26.312L52.8776 26.564C52.8776 27.3293 52.6629 28.1413 52.2336 29H45.2616L45.0096 27.46C45.8869 27.1053 46.6989 26.8253 47.4456 26.62C47.3896 24.4733 47.3336 22.672 47.2776 21.216C47.2216 19.7413 47.0816 18.7427 46.8576 18.22C46.6336 17.6973 46.1389 17.436 45.3736 17.436C44.2163 17.436 43.1803 17.6413 42.2656 18.052C42.2469 18.8547 42.1909 20.1707 42.0976 22C42.0229 23.8107 41.9763 25.248 41.9576 26.312L44.1416 26.564C44.1416 27.3293 43.9269 28.1413 43.4976 29H36.5256L36.2736 27.46C37.2069 27.1053 38.0469 26.8253 38.7936 26.62C38.7749 25.5 38.7096 23.9507 38.5976 21.972C38.5043 19.9933 38.4483 18.528 38.4296 17.576C37.7389 17.5013 37.0016 17.3613 36.2176 17.156L36.3576 15.14C37.6643 14.7853 39.1389 14.608 40.7816 14.608C40.9869 14.7387 41.2669 15.14 41.6216 15.812C42.2563 15.4947 43.0309 15.1867 43.9456 14.888C44.8603 14.5893 45.4203 14.44 45.6256 14.44ZM59.3795 14.664C59.7342 14.664 59.9582 14.6733 60.0515 14.692C60.0515 15.6067 59.8928 16.456 59.5755 17.24C59.5008 21.272 59.4542 24.296 59.4355 26.312L61.6195 26.564C61.6195 27.3293 61.4048 28.1413 60.9755 29H54.0035L53.7515 27.46C54.9088 27.0307 55.7488 26.7507 56.2715 26.62L55.9635 17.548C54.8622 17.436 54.0502 17.296 53.5275 17.128C53.5275 16.6613 53.5928 15.9893 53.7235 15.112C54.8248 14.8133 56.7102 14.664 59.3795 14.664ZM59.3795 9.372C59.5475 10.212 59.6315 10.856 59.6315 11.304C59.6315 11.7333 59.5942 12.2187 59.5195 12.76C58.7728 12.928 58.1382 13.012 57.6155 13.012C57.1115 13.012 56.4955 12.984 55.7675 12.928C55.5995 12.088 55.5155 11.4533 55.5155 11.024C55.5155 10.576 55.5528 10.0813 55.6275 9.54C56.3742 9.372 56.9995 9.288 57.5035 9.288C58.0262 9.288 58.6515 9.316 59.3795 9.372Z" fill="#F7931A"/>
<path d="M79.776 11.488L73.184 20.448L80.096 29.888L82.816 30.08C82.816 30.6773 82.6347 31.3173 82.272 32H73.888L73.792 30.88C74.752 30.5387 75.7013 30.2827 76.64 30.112L71.424 22.432L66.464 29.888L69.184 30.08C69.184 30.6773 69.0027 31.3173 68.64 32H60.416L60.32 30.88C61.3013 30.5387 62.2613 30.2827 63.2 30.112L69.952 20.448L63.648 11.744L60.928 11.552C60.928 10.9547 61.1093 10.3147 61.472 9.632H70.08L70.176 10.752C69.088 11.1573 68.0747 11.4453 67.136 11.616L71.872 18.592L76.512 11.712L73.792 11.52C73.792 10.9227 73.9733 10.2827 74.336 9.6H82.56L82.656 10.72C81.6747 11.0613 80.7147 11.3173 79.776 11.488Z" fill="#202020"/>
<path d="M21.5 29C25.0899 29 28 26.0899 28 22.5C28 18.9101 25.0899 16 21.5 16C17.9101 16 15 18.9101 15 22.5C15 26.0899 17.9101 29 21.5 29Z" fill="#F7931A"/>
<path d="M24.4205 21.6956C24.5481 20.8441 23.8993 20.3863 23.0129 20.0808L23.3005 18.927L22.5985 18.7523L22.3182 19.8756C22.1338 19.8293 21.9444 19.7863 21.7555 19.7432L22.0379 18.6126L21.3359 18.4375L21.0483 19.5908C20.8955 19.5559 20.7452 19.5218 20.5998 19.4852L20.6006 19.4816L19.6321 19.2398L19.4452 19.9898C19.4452 19.9898 19.9664 20.1092 19.9554 20.1165C20.2398 20.1876 20.291 20.3757 20.2825 20.5252L19.955 21.8394C19.9745 21.8443 19.9997 21.8516 20.0282 21.8626L19.9538 21.8443L19.4948 23.6854C19.4598 23.7716 19.3717 23.9012 19.1726 23.852C19.1799 23.8622 18.6623 23.7248 18.6623 23.7248L18.3138 24.5284L19.2278 24.7563C19.3977 24.799 19.5642 24.8437 19.7279 24.8855L19.4375 26.0523L20.1391 26.2269L20.4267 25.0732C20.6184 25.1248 20.8045 25.1727 20.9865 25.2182L20.6997 26.3671L21.4017 26.5418L21.6922 25.3775C22.8898 25.6042 23.79 25.5128 24.1691 24.4297C24.4746 23.5579 24.154 23.0545 23.5239 22.7267C23.983 22.6211 24.3283 22.3192 24.4205 21.6956ZM22.8158 23.9454C22.5993 24.8177 21.1307 24.346 20.6546 24.2278L21.0405 22.682C21.5167 22.801 23.0429 23.0363 22.8158 23.9454ZM23.0332 21.683C22.8353 22.4764 21.6133 22.073 21.2173 21.9743L21.5666 20.5728C21.9627 20.6715 23.2396 20.8555 23.0332 21.683Z" fill="white"/>
</svg>
